<?xml version="1.0" encoding="UTF-8" standalone="no"?>
<!DOCTYPE svg PUBLIC "-//W3C//DTD SVG 1.1//EN" "http://www.w3.org/Graphics/SVG/1.1/DTD/svg11.dtd">
<svg width="100%" height="100%" viewBox="0 0 612 417" version="1.1" xmlns="http://www.w3.org/2000/svg" xmlns:xlink="http://www.w3.org/1999/xlink" xml:space="preserve" style="fill-rule:evenodd;clip-rule:evenodd;stroke-linejoin:round;stroke-miterlimit:1.41421;">
    <g id="Layer1" transform="matrix(4.16667,0,0,4.16667,-4919.7,-2792.53)">
        <g transform="matrix(0.621816,0,0,0.626818,1173.55,659.135)">
            <path d="M69.3,27.31C86.21,27.28 103.12,27.29 120.04,27.31C127.35,27.26 134.32,32.09 137.02,38.85C154.68,81.79 189.93,167.69 189.93,167.69C189.93,167.69 156.04,167.71 139.1,167.69C131.99,167.66 125.16,163.1 122.4,156.54C104.67,113.48 87.09,70.35 69.3,27.31Z" style="fill:white;"/>
        </g>
        <g transform="matrix(0.621816,0,0,0.626818,1173.55,659.135)">
            <path d="M11.67,144.24L69.3,27.31L97.953,96.991C97.953,96.991 84.68,123.85 79.79,133.75C77.39,138.79 72.57,142.58 67.11,143.75C64.14,144.46 61.06,144.19 58.04,144.23C42.58,144.23 11.67,144.24 11.67,144.24Z" style="fill:white;"/>
            <clipPath id="_clip1">
                <path d="M11.67,144.24L69.3,27.31L97.953,96.991C97.953,96.991 84.68,123.85 79.79,133.75C77.39,138.79 72.57,142.58 67.11,143.75C64.14,144.46 61.06,144.19 58.04,144.23C42.58,144.23 11.67,144.24 11.67,144.24Z"/>
            </clipPath>
            <g clip-path="url(#_clip1)">
                <g transform="matrix(0.70824,-0.835717,1.20399,1.00412,8.16082,73.2314)">
                    <rect x="-11.289" y="9.555" width="87.664" height="51.775" style="fill:url(#_Linear2);"/>
                </g>
            </g>
        </g>
        <g transform="matrix(0.621816,0,0,0.626818,1173.55,659.135)">
            <path d="M179.66,60.88C182.68,54.82 189.25,50.84 195.99,50.78C213.2,50.75 247.61,50.76 247.61,50.76L189.93,167.69L161.319,97.993C161.319,97.993 174.66,70.89 179.66,60.88Z" style="fill:white;"/>
            <clipPath id="_clip3">
                <path d="M179.66,60.88C182.68,54.82 189.25,50.84 195.99,50.78C213.2,50.75 247.61,50.76 247.61,50.76L189.93,167.69L161.319,97.993C161.319,97.993 174.66,70.89 179.66,60.88Z"/>
            </clipPath>
            <g clip-path="url(#_clip3)">
                <g transform="matrix(-0.683151,0.856024,-1.23324,-0.968546,251.682,124.313)">
                    <rect x="-11.289" y="9.555" width="87.664" height="51.775" style="fill:url(#_Linear4);"/>
                </g>
            </g>
        </g>
    </g>
    <defs>
        <linearGradient id="_Linear2" x1="0" y1="0" x2="1" y2="0" gradientUnits="userSpaceOnUse" gradientTransform="matrix(87.6636,0,0,51.7752,-11.2886,35.4427)"><stop offset="0%" style="stop-color:white;stop-opacity:0"/><stop offset="100%" style="stop-color:rgb(191,191,191);stop-opacity:1"/></linearGradient>
        <linearGradient id="_Linear4" x1="0" y1="0" x2="1" y2="0" gradientUnits="userSpaceOnUse" gradientTransform="matrix(87.6636,0,0,51.7752,-11.2886,35.4427)"><stop offset="0%" style="stop-color:white;stop-opacity:0"/><stop offset="100%" style="stop-color:rgb(191,191,191);stop-opacity:1"/></linearGradient>
    </defs>
</svg>
